<svg width="96" height="96" viewBox="0 0 96 96" fill="none" xmlns="http://www.w3.org/2000/svg">
<rect width="96" height="96" rx="48" fill="white"/>
<rect width="96" height="96" rx="45" fill="#29A867"/>
<path d="M59.128 36.734C63.5567 36.734 66.9147 38.0723 69.202 40.749C71.4893 43.4257 72.633 47.0757 72.633 51.699C72.633 56.3223 71.611 60.1427 69.567 63.16C67.523 66.1287 64.3353 67.613 60.004 67.613C57.376 67.613 55.1373 67.0047 53.288 65.788C51.4873 64.5227 50.222 62.7707 49.492 60.532C46.3773 65.1067 41.9 67.394 36.06 67.394C31.6313 67.394 28.2733 65.861 25.986 62.795C23.6987 59.6803 22.555 55.9573 22.555 51.626C22.555 47.2947 23.723 43.6933 26.059 40.822C28.4437 37.9507 31.607 36.515 35.549 36.515C38.0797 36.515 40.221 37.1233 41.973 38.34C43.7737 39.5567 45.0147 41.26 45.696 43.45C48.8107 38.9727 53.288 36.734 59.128 36.734ZM36.425 66.007C37.447 66.007 38.25 65.204 38.834 63.598C39.4667 61.992 40.148 59.583 40.878 56.371C41.9487 51.4557 43.1653 47.7813 44.528 45.348C44.236 43.6933 43.5547 42.2333 42.484 40.968C41.4133 39.7027 40.2453 39.07 38.98 39.07C37.7147 39.07 36.6927 39.435 35.914 40.165C35.1353 40.895 34.6 42.0143 34.308 43.523C33.7727 45.9563 33.505 49.4117 33.505 53.889C33.505 58.3177 33.6753 61.4567 34.016 63.306C34.3567 65.1067 35.1597 66.007 36.425 66.007ZM50.587 58.78C50.879 60.4833 51.5603 61.9433 52.631 63.16C53.7503 64.328 54.9427 64.912 56.208 64.912C57.522 64.912 58.544 64.547 59.274 63.817C60.0527 63.087 60.588 61.992 60.88 60.532C61.4153 58.196 61.683 54.838 61.683 50.458C61.683 46.0293 61.4883 42.866 61.099 40.968C60.7583 39.07 59.9797 38.121 58.763 38.121C57.741 38.121 56.9137 38.9727 56.281 40.676C55.697 42.3307 55.0643 44.7153 54.383 47.83C53.7017 50.9447 53.069 53.232 52.485 54.692C51.9497 56.1033 51.317 57.466 50.587 58.78Z" fill="white"/>
</svg>
